<?xml version="1.0" encoding="UTF-8" standalone="no"?>
<svg
   xmlns:dc="http://purl.org/dc/elements/1.1/"
   xmlns:cc="http://creativecommons.org/ns#"
   xmlns:rdf="http://www.w3.org/1999/02/22-rdf-syntax-ns#"
   xmlns:svg="http://www.w3.org/2000/svg"
   xmlns="http://www.w3.org/2000/svg"
   xmlns:sodipodi="http://sodipodi.sourceforge.net/DTD/sodipodi-0.dtd"
   xmlns:inkscape="http://www.inkscape.org/namespaces/inkscape"
   viewBox="0 0 32 32"
   version="1.1"
   id="svg4"
   sodipodi:docname="phone.svg"
   width="32"
   height="32"
   inkscape:version="0.92.5 (2060ec1f9f, 2020-04-08)">
  <metadata
     id="metadata10">
    <rdf:RDF>
      <cc:Work
         rdf:about="">
        <dc:format>image/svg+xml</dc:format>
        <dc:type
           rdf:resource="http://purl.org/dc/dcmitype/StillImage" />
        <dc:title></dc:title>
      </cc:Work>
    </rdf:RDF>
  </metadata>
  <defs
     id="defs8" />
  <sodipodi:namedview
     pagecolor="#ffffff"
     bordercolor="#666666"
     borderopacity="1"
     objecttolerance="10"
     gridtolerance="10"
     guidetolerance="10"
     inkscape:pageopacity="0"
     inkscape:pageshadow="2"
     inkscape:window-width="1606"
     inkscape:window-height="1001"
     id="namedview6"
     showgrid="false"
     fit-margin-top="0"
     fit-margin-left="0"
     fit-margin-right="0"
     fit-margin-bottom="0"
     inkscape:zoom="8.328125"
     inkscape:cx="-10.628972"
     inkscape:cy="10.8768"
     inkscape:window-x="0"
     inkscape:window-y="0"
     inkscape:window-maximized="0"
     inkscape:current-layer="svg4" />
  <!--! Font Awesome Pro 6.1.2 by @fontawesome - https://fontawesome.com License - https://fontawesome.com/license (Commercial License) Copyright 2022 Fonticons, Inc. -->
  <path
     d="m 31.953023,24.186644 -1.453262,6.299682 C 30.295617,31.376906 29.512792,32 28.595831,32 12.826214,31.99875 0,19.174398 0,3.4064456 0,2.490242 0.62312147,1.7065316 1.5138933,1.5034169 L 7.8144891,0.05036536 C 8.7320762,-0.1622489 9.669665,0.313977 10.050951,1.1828081 l 2.907775,6.7809071 c 0.339907,0.7987094 0.110636,1.7292878 -0.561303,2.2780098 l -3.3653186,2.701738 c 2.1239516,4.326031 5.6417846,7.843353 9.9696936,9.968246 l 2.75526,-3.36233 c 0.543052,-0.673716 1.480766,-0.906829 2.279591,-0.560909 l 6.781892,2.906728 c 0.815701,0.429041 1.347002,1.378993 1.134482,2.291446 z"
     id="path2"
     inkscape:connector-curvature="0"
     style="stroke-width:0.06250139" />
</svg>
